<?xml version="1.0" encoding="UTF-8"?>
<svg xmlns="http://www.w3.org/2000/svg" xmlns:xlink="http://www.w3.org/1999/xlink" viewBox="0 0 48 48" version="1.1">
<g id="surface1">
<path style=" fill:#039BE5;" d="M 24 46 C 13.5 46 5 37.601563 5 27.398438 C 5 19.300781 10.300781 12.101563 18.199219 9.699219 C 19.898438 9.101563 21.199219 5.398438 21.5 4.300781 L 22 2 L 23.300781 3.898438 C 24.398438 5.601563 26.5 8.898438 27.898438 9.101563 C 36.601563 10.898438 43 18.601563 43 27.398438 C 43 37.601563 34.5 46 24 46 Z "/>
<path style=" fill:#FFFFFF;" d="M 29.5 35.199219 C 30.101563 35.199219 30.800781 35.199219 31.300781 35.5 C 31.800781 35.800781 32.101563 36.5 32.199219 36.898438 C 32.398438 37.300781 32.199219 37.5 31.898438 37.699219 C 31.601563 37.898438 31.601563 37.800781 31.300781 37.300781 C 31 36.800781 30.800781 36.300781 29.398438 36.300781 C 28 36.300781 27.601563 36.800781 26.898438 37.300781 C 26.199219 37.800781 26 38 25.800781 37.699219 C 25.601563 37.398438 25.601563 37.101563 26.101563 36.699219 C 26.5 36.300781 27.199219 35.699219 27.898438 35.398438 C 28.5 35.101563 28.898438 35.199219 29.5 35.199219 Z M 22.898438 39.601563 C 23.699219 40.199219 24.898438 40.699219 27.398438 40.699219 C 29.898438 40.699219 31.699219 40 32.5 39.398438 C 32.898438 39.101563 33 39.398438 33.101563 39.5 C 33.101563 39.699219 33.199219 39.898438 32.898438 40.199219 C 32.699219 40.398438 30.898438 41.601563 28.699219 41.800781 C 26.601563 42 23.699219 42.101563 21.898438 40.601563 C 21.601563 40.300781 21.699219 39.898438 21.898438 39.800781 C 22.101563 39.601563 22.300781 39.5 22.5 39.5 C 22.699219 39.5 22.800781 39.5 22.898438 39.601563 Z M 14 31.601563 C 14 28.699219 16.898438 26 20.601563 26 C 25.199219 26 28.5 30.300781 30.800781 30.199219 C 32.800781 30.199219 36.601563 26.5 38.5 26.5 C 40.5 26.5 41 28.398438 41 29.601563 C 41 30.699219 40.601563 32.800781 39.601563 34.101563 C 38.601563 35.398438 38.101563 35.898438 36.898438 35.800781 C 35.5 35.699219 32.601563 31.601563 30.800781 31.5 C 28.5 31.398438 23.5 36 19.601563 36 C 17.199219 36 16.5 35.699219 15.699219 35.199219 C 14.601563 34.398438 14 33.199219 14 31.601563 Z "/>
</g>
</svg>
